# xmcd
#
# Track frame offsets:
#	150
#	19222
#	39067
#	58872
#	87514
#	107552
#	131330
#	172582
#	188167
#	214816
#	233391
#	251536
#	272551
#	295575
#	308002
#	320910
#	345323
#
# Disc length: 4789 seconds
#
# Revision: 3
# Processed by: cddbd v1.5.2PL0 Copyright (c) Steve Scherf et al.
# Submitted via: EZCDAudioConverter 6.0.0.1
#
DISCID=dd12b311
DTITLE=Various Artist - Akella Presents - Rockin' Blues - vol.28  CD2  New!
DYEAR=2013
DGENRE=Blues
TTITLE0=IMPERIAL CROWNS - Altar Of Love
TTITLE1=BLEU JACKSON - Gotta Love This Town
TTITLE2=BIG MIKE GRIFFIN - Love is Growing Cold
TTITLE3=ERIC E. GOLBACH and CRAIG CHAQUICO - Bad Woman 
TTITLE4=WOLFPIN - Mighty Cool
TTITLE5=The JIMI VINCENT BAND - Quitter Never Wins
TTITLE6=MARK REECE - What Do You Know
TTITLE7=PAT McMANUS - Low Down Dirty Blues
TTITLE8=SCOTT ELLISON - Let's Think Twice
TTITLE9=FREDDIE and The SCREAMERS - Tough As Nails
TTITLE10=JIM SUHLER and MONKEY BEAT - Mexicali Run
TTITLE11=ZED MITCHELL - Don't Lie To Me
TTITLE12=BACK TO BLUE - New Orleans
TTITLE13=BLUEBIRDS - I'm Your Man
TTITLE14=MICK CLARKE - Haphazard Man
TTITLE15=MARK SELBY - Cold One Closin' In
TTITLE16=DEREK MILLER - Wishing Well
EXTD=
EXTT0=
EXTT1=
EXTT2=
EXTT3=
EXTT4=
EXTT5=
EXTT6=
EXTT7=
EXTT8=
EXTT9=
EXTT10=
EXTT11=
EXTT12=
EXTT13=
EXTT14=
EXTT15=
EXTT16=
PLAYORDER=
